<?xml version="1.0" encoding="utf-8"?>
<!-- Generator: Adobe Illustrator 28.0.0, SVG Export Plug-In . SVG Version: 6.00 Build 0)  -->
<svg version="1.1" id="Layer_1" xmlns="http://www.w3.org/2000/svg" xmlns:xlink="http://www.w3.org/1999/xlink" x="0px" y="0px"
	 viewBox="0 0 27.8 26.2" style="enable-background:new 0 0 27.8 26.2;" xml:space="preserve">
<style type="text/css">
	.st0{filter:url(#Adobe_OpacityMaskFilter);}
	.st1{enable-background:new    ;}
	.st2{clip-path:url(#SVGID_00000180363950833612822900000001951244684935093926_);}
	
		.st3{clip-path:url(#SVGID_00000133492601281793506980000002395839760813299611_);fill:none;stroke:#000000;stroke-width:1.8984;stroke-miterlimit:10;}
	.st4{clip-path:url(#SVGID_00000133492601281793506980000002395839760813299611_);}
	
		.st5{clip-path:url(#SVGID_00000180363950833612822900000001951244684935093926_);mask:url(#SVGID_00000103973430066886509260000015141707619009189814_);enable-background:new    ;}
	.st6{clip-path:url(#SVGID_00000152943489365689752630000002211120556789369259_);}
	.st7{clip-path:url(#SVGID_00000132059393692305605730000000516515177972647600_);fill:#00C47A;}
</style>
<g>
	<defs>
		<rect id="SVGID_1_" y="-3.6" width="27.8" height="29.8"/>
	</defs>
	<clipPath id="SVGID_00000066509204497109686180000002217810882693472384_">
		<use xlink:href="#SVGID_1_"  style="overflow:visible;"/>
	</clipPath>
	<defs>
		<filter id="Adobe_OpacityMaskFilter" filterUnits="userSpaceOnUse" x="0" y="-3.6" width="27.8" height="29.8">
			
				<feColorMatrix  type="matrix" values="-1 0 0 0 1  0 -1 0 0 1  0 0 -1 0 1  0 0 0 1 0" color-interpolation-filters="sRGB" result="source"/>
		</filter>
	</defs>
	
		<mask maskUnits="userSpaceOnUse" x="0" y="-3.6" width="27.8" height="29.8" id="SVGID_00000133496734568705357970000004614064962197463226_">
		<g class="st0">
			<g class="st1">
				<g>
					<defs>
						<rect id="SVGID_00000118385185585163765160000003633717393422859648_" x="5.8" y="3.7" width="18" height="19.2"/>
					</defs>
					
						<clipPath id="SVGID_00000170244602535126940890000003603263341058955142_" style="clip-path:url(#SVGID_00000066509204497109686180000002217810882693472384_);">
						<use xlink:href="#SVGID_00000118385185585163765160000003633717393422859648_"  style="overflow:visible;"/>
					</clipPath>
					
						<path style="clip-path:url(#SVGID_00000170244602535126940890000003603263341058955142_);fill:none;stroke:#000000;stroke-width:1.8984;stroke-miterlimit:10;" d="
						M22.9,10.7c0,0.8,0,1.7,0,2.5c0,3.1-1.4,5.5-4,7.1c-1.2,0.7-2.5,1.2-3.9,1.5c-0.2,0-0.3,0-0.5,0c-1.8-0.4-3.4-1.1-4.8-2.3
						c-1.6-1.4-2.5-3.1-2.8-5.2c0-0.4-0.1-0.8-0.1-1.2c0-1.9,0-6.3,0-6.3C10,6,11.6,5.6,14.6,4.7c0.1,0,0.2,0,0.3,0
						c2.3,0.7,5.9,1.7,7.9,2.2C22.9,6.9,22.9,9.6,22.9,10.7z"/>
					<path style="clip-path:url(#SVGID_00000170244602535126940890000003603263341058955142_);" d="M16,12.1h1.3
						c0.3,0,0.4,0.1,0.4,0.4c0,0.5,0,1,0,1.5c0,0.3-0.1,0.4-0.4,0.4c-0.4,0-0.9,0-1.4,0v0.2c0,0.4,0,0.8,0,1.2
						c0,0.2-0.1,0.3-0.3,0.3c-0.6,0-1.1,0-1.7,0c-0.2,0-0.3-0.1-0.3-0.3c0-0.5,0-0.9,0-1.4h-0.4c-0.3,0-0.6,0-1,0
						c-0.2,0-0.3-0.1-0.3-0.3c0-0.6,0-1.1,0-1.7c0-0.2,0.1-0.3,0.3-0.3c0.4,0,0.8,0,1.2,0h0.2v-1.3c0-0.4,0.1-0.4,0.4-0.4
						c0.5,0,1,0,1.5,0c0.3,0,0.4,0.1,0.4,0.4C16,11.2,16,11.7,16,12.1"/>
				</g>
			</g>
		</g>
	</mask>
	
		<g style="clip-path:url(#SVGID_00000066509204497109686180000002217810882693472384_);mask:url(#SVGID_00000133496734568705357970000004614064962197463226_);enable-background:new    ;">
		<g>
			<defs>
				<rect id="SVGID_00000102502176636397215230000016714881329134375819_" y="-3.6" width="27.8" height="29.8"/>
			</defs>
			<clipPath id="SVGID_00000024685556507138180380000002717035869210215578_">
				<use xlink:href="#SVGID_00000102502176636397215230000016714881329134375819_"  style="overflow:visible;"/>
			</clipPath>
			<g style="clip-path:url(#SVGID_00000024685556507138180380000002717035869210215578_);">
				<defs>
					<rect id="SVGID_00000116211105306057378340000016906825740688477106_" y="-3.6" width="27.8" height="29.8"/>
				</defs>
				<clipPath id="SVGID_00000044896258712565350390000004300474757459133373_">
					<use xlink:href="#SVGID_00000116211105306057378340000016906825740688477106_"  style="overflow:visible;"/>
				</clipPath>
				
					<rect y="-3.6" style="clip-path:url(#SVGID_00000044896258712565350390000004300474757459133373_);fill:#00C47A;" width="27.8" height="29.8"/>
			</g>
		</g>
	</g>
</g>
</svg>
